<?xml version="1.0" encoding="UTF-8"?>
<svg version="1.1" xmlns="http://www.w3.org/2000/svg" width="512" height="512">
<path d="M0 0 C8.87946508 0.03082378 17.69483519 0.34317923 26.55807495 0.93063354 C27.87268707 1.01467438 29.18729919 1.09871521 30.54174805 1.18530273 C33.29984355 1.36212143 36.05769095 1.54231037 38.81539917 1.72506714 C42.29642535 1.95551128 45.777929 2.17753861 49.2596426 2.39731789 C100.28500256 5.62894574 100.28500256 5.62894574 110.37838745 16.56344604 C113.70253701 21.43095075 114.73120523 25.19823791 114.12838745 31.12594604 C112.75421276 36.19076133 110.37539245 39.36391516 106.00338745 42.25094604 C99.74362041 45.68250508 92.93414838 47.74612938 86.14608765 49.86929321 C85.39329781 50.10486309 84.64050797 50.34043297 83.86490631 50.58314133 C83.29185509 50.76226688 82.71880386 50.94139244 82.12838745 51.12594604 C101.23171972 55.85195447 120.3743753 60.18966827 139.6479187 64.17282104 C142.25864583 64.7157766 144.86930077 65.25906921 147.47987366 65.80276489 C152.88819557 66.92839862 158.29721264 68.05063419 163.70675659 69.17037964 C170.59833011 70.59691546 177.48867485 72.02929913 184.37866688 73.46345139 C189.74468899 74.58034208 195.11114891 75.69512227 200.47772789 76.8093338 C203.01840942 77.33686532 205.55903114 77.86468495 208.09958839 78.39281464 C221.08791654 81.09095921 234.07362152 83.7664399 247.12838745 86.12594604 C246.24151245 85.19782104 245.35463745 84.26969604 244.44088745 83.31344604 C234.67133751 71.90408985 233.2463049 57.75573433 233.93746948 43.38180542 C234.96405629 31.25180278 242.26148892 20.07058375 250.97994995 11.90328979 C262.77627609 2.1445109 276.18222936 -1.03655119 291.19235229 -0.05862427 C306.46918776 1.39778022 318.24483495 9.95894916 327.94088745 21.37594604 C336.55039901 32.93670861 338.68568956 47.33041106 336.66744995 61.32125854 C334.08068956 72.97689653 328.15534336 83.2467031 319.12838745 91.12594604 C317.49448751 91.98031687 315.85744288 92.82868624 314.2182312 93.67282104 C307.86172602 97.37853082 305.74382973 102.47523335 302.94088745 109.06344604 C302.18473145 110.74361816 302.18473145 110.74361816 301.41329956 112.45773315 C300.41576923 114.67640859 299.42914398 116.90002576 298.45455933 119.12887573 C297.34821425 121.62915043 296.19942143 124.0897388 294.98776245 126.54000854 C291.9568962 132.67731382 289.62514291 138.66772157 287.81588745 145.25094604 C281.38052421 168.21330229 256.69179914 183.27625709 237.09713745 194.41500854 C217.94295608 205.01209832 197.8087426 213.2603901 177.55984497 221.47247314 C135.85148419 238.35356453 135.85148419 238.35356453 100.12838745 265.12594604 C99.41940308 265.81043823 98.7104187 266.49493042 97.97994995 267.20016479 C89.38708125 276.10580074 82.91348431 288.73137183 82.75338745 301.25094604 C83.30601154 328.17601962 104.30767561 351.92659147 122.71432495 369.61032104 C128.11416217 374.55023522 133.77325486 379.16756276 139.46188354 383.76852417 C141.36622857 385.3196754 143.25761877 386.88583534 145.1479187 388.45407104 C152.60455903 394.63692504 160.10838147 400.70436846 167.8197937 406.56735229 C171.65456587 409.50668359 175.38892206 412.56690801 179.12838745 415.62594604 C186.02424704 421.26642475 193.03088791 426.74205512 200.12838745 432.12594604 C199.69526245 431.13852417 199.26213745 430.15110229 198.81588745 429.13375854 C198.253197 427.8395705 197.6907074 426.54529512 197.12838745 425.25094604 C196.84221558 424.59996948 196.5560437 423.94899292 196.26119995 423.27828979 C194.12838745 418.35250854 194.12838745 418.35250854 194.12838745 416.12594604 C193.24924683 415.87715698 192.3701062 415.62836792 191.46432495 415.37203979 C179.13555688 410.76679739 170.50443618 398.23061712 165.15963745 386.69235229 C158.9023916 371.12034274 159.38508234 353.69409122 165.27682495 338.08297729 C172.44462681 322.06936217 186.0433123 311.36454996 202.12838745 305.12594604 C215.86891126 300.86913466 232.96474124 301.19303508 246.12838745 307.12594604 C247.06424683 307.53844604 248.0001062 307.95094604 248.96432495 308.37594604 C263.83440703 315.70685486 273.15384683 327.90688236 279.12838745 343.07907104 C284.34531336 358.97439218 282.84429057 375.51496727 275.44088745 390.43844604 C270.81370451 399.3047393 265.94307673 406.40467531 257.39401245 411.84860229 C249.47425289 417.70283553 246.41739308 425.26224426 242.62838745 434.12594604 C241.94911852 435.64813186 241.26683948 437.16897811 240.58151245 438.68844604 C238.99843895 442.21548307 237.44942371 445.75586789 235.91696167 449.30514526 C234.84784916 451.77370288 233.75540367 454.23162283 232.65963745 456.68844604 C232.15432495 457.82282104 231.64901245 458.95719604 231.12838745 460.12594604 C231.90553101 460.89261597 232.68267456 461.65928589 233.48336792 462.44918823 C236.3696417 465.29921892 239.24925635 468.15589864 242.12692261 471.01461792 C243.37251502 472.25016262 244.6198979 473.48390505 245.86911011 474.71578979 C247.66602528 476.48840301 249.45636843 478.26743144 251.24557495 480.04782104 C251.80397064 480.59589417 252.36236633 481.14396729 252.93768311 481.70864868 C255.59911769 484.36931068 257.56287963 486.71580576 259.12838745 490.12594604 C224.77466324 490.54170531 190.42068576 490.85616782 156.06502819 491.05466557 C149.5375867 491.09246999 143.01018941 491.13303172 136.4828186 491.18173218 C123.46015947 491.27798268 110.43861835 491.34533704 97.41555977 491.32048321 C91.96490286 491.31045947 86.51551259 491.31662046 81.06503296 491.36499023 C75.9645544 491.40939969 70.86631288 491.40632352 65.76581764 491.36640549 C63.91197558 491.35985821 62.05798152 491.37006591 60.20435143 491.3988533 C46.34442548 491.59902396 46.34442548 491.59902396 40.86080933 487.95387268 C38.33204635 485.46881957 36.21213872 482.98823699 34.12838745 480.12594604 C33.07011561 478.83164775 32.01060488 477.538359 30.94869995 476.24703979 C30.04095918 475.0260369 29.1425546 473.79804037 28.25338745 472.56344604 C27.75709839 471.88636597 27.26080933 471.20928589 26.7494812 470.51168823 C25.71531034 469.09523885 24.68568019 467.67546308 23.66061401 466.25241089 C22.15800611 464.1670516 20.63994062 462.09364432 19.12057495 460.02047729 C-7.34020113 423.58403179 -31.41140821 378.18322461 -32.87161255 332.12594604 C-32.91028442 331.10960083 -32.91028442 331.10960083 -32.94973755 330.07272339 C-34.00809723 298.77835045 -26.61849995 269.85930213 -10.53567505 243.04391479 C-9.98653442 242.08098511 -9.4373938 241.11805542 -8.87161255 240.12594604 C-8.44710815 239.38465454 -8.02260376 238.64336304 -7.5852356 237.87960815 C-6.57520566 233.98219878 -8.03278324 231.56250266 -9.7895813 228.14938354 C-10.11792465 227.47489166 -10.44626801 226.80039978 -10.78456116 226.10546875 C-11.49270326 224.65353337 -12.20846611 223.2052951 -12.93099976 221.76046753 C-14.83805836 217.94077865 -16.68271253 214.09114779 -18.5317688 210.24313354 C-18.90477112 209.46987732 -19.27777344 208.69662109 -19.66207886 207.89993286 C-47.70839511 149.45741148 -47.70839511 149.45741148 -38.87161255 123.12594604 C-34.27235953 111.00556163 -24.4287138 100.04795078 -12.59036255 94.62203979 C2.10668773 88.81273276 16.37346189 88.05273107 31.12838745 94.12594604 C42.77415633 99.26324754 51.35058981 107.84077608 56.60494995 119.36422729 C65.86837495 143.4543074 56.44777647 166.54434958 47.12838745 189.12594604 C47.62838257 188.84509155 48.12837769 188.56423706 48.64352417 188.27487183 C59.09755908 182.46183414 69.65027388 177.24873279 80.81588745 172.93844604 C82.2242688 172.38858032 82.2242688 172.38858032 83.66110229 171.8276062 C103.14123724 164.50619177 123.29603609 159.15826192 143.45986938 154.10952759 C159.77491983 150.01190373 176.05990458 145.89083192 192.00338745 140.50094604 C193.73540405 139.91724243 193.73540405 139.91724243 195.50241089 139.32174683 C201.29003177 137.3022101 206.71744677 135.00743494 212.12838745 132.12594604 C211.72676253 128.37681408 211.72676253 128.37681408 209.37939453 125.56369019 C207.04505545 124.07272093 205.00437299 123.2500123 202.36227417 122.43453979 C201.40643936 122.13499893 200.45060455 121.83545807 199.46580505 121.52684021 C197.90272865 121.0499601 197.90272865 121.0499601 196.30807495 120.56344604 C194.65430092 120.04783363 194.65430092 120.04783363 192.96711731 119.52180481 C190.57156894 118.77537118 188.17497176 118.0322972 185.77746582 117.29217529 C179.99455264 115.50519531 174.21937801 113.69362651 168.44417 111.88194084 C166.42756007 111.2494471 164.41071728 110.61769945 162.39387512 109.98594666 C149.12454867 105.82607733 135.88362306 101.58082201 122.66140747 97.27365112 C120.21759796 96.47873249 117.77276056 95.68696565 115.32681274 94.89865112 C56.32404817 75.87294084 56.32404817 75.87294084 47.62838745 61.50094604 C44.94237809 55.33751385 45.13587995 48.16827792 46.7182312 41.72360229 C49.13743875 35.9152745 53.60949393 32.83287039 59.12838745 30.12594604 C68.14209931 26.60403214 77.6421495 24.85787331 87.12838745 23.12594604 C83.39171282 21.47682193 79.92895596 20.63805973 75.89547729 20.02853394 C74.65583221 19.83816055 73.41618713 19.64778717 72.13897705 19.4516449 C70.78910865 19.25052572 69.43922418 19.04951444 68.08932495 18.84860229 C66.68458957 18.63498678 65.27993799 18.42081957 63.87536621 18.20613098 C60.17137 17.64141402 56.46633434 17.08383507 52.76101685 16.52786255 C49.05995289 15.97143721 45.35981964 15.40890302 41.65963745 14.84664917 C40.21003437 14.62661296 38.76042908 14.40659129 37.31082153 14.18658447 C34.47316244 13.75580244 31.63556615 13.32460955 28.79800415 12.89318848 C22.82572487 11.98584315 16.8530922 11.08289375 10.87545776 10.21139526 C9.1394395 9.95254847 7.4034354 9.69360663 5.66744995 9.43453979 C4.90604706 9.32763321 4.14464417 9.22072662 3.36016846 9.11058044 C-1.64512489 8.3524337 -1.64512489 8.3524337 -3.87161255 6.12594604 C-4.05911255 3.56344604 -4.05911255 3.56344604 -3.87161255 1.12594604 C-2.87161255 0.12594604 -2.87161255 0.12594604 0 0 Z " fill="#696967" transform="translate(108.87161254882813,10.874053955078125)"/>
<path d="M0 0 C0.93585938 0.4125 1.87171875 0.825 2.8359375 1.25 C17.70601958 8.58090881 27.02545938 20.78093632 33 35.953125 C38.21692591 51.84844614 36.71590312 68.38902122 29.3125 83.3125 C24.68061343 92.18780603 19.8016001 99.28469662 11.25 104.7421875 C3.41908803 110.53317907 0.45086562 117.90127912 -3.25 126.6875 C-4.53468981 129.63433001 -5.83654123 132.57342784 -7.140625 135.51171875 C-7.45463257 136.22504364 -7.76864014 136.93836853 -8.09216309 137.67330933 C-16.37550587 156.25033725 -16.37550587 156.25033725 -22 160 C-24.96484375 160.03125 -24.96484375 160.03125 -28 159 C-29.53841332 156.77393831 -30.51641277 154.95108178 -31.5625 152.5 C-32.23070453 151.04908522 -32.90286939 149.59999041 -33.578125 148.15234375 C-34.13790039 146.93780518 -34.13790039 146.93780518 -34.70898438 145.69873047 C-37.76219239 139.31632475 -41.18294237 133.1086286 -44.51977539 126.87109375 C-46.95525875 122.2453222 -49.12639661 117.92302964 -50.51171875 112.87109375 C-51.09760338 110.73644753 -51.09760338 110.73644753 -52 109 C-54.82754568 107.56959797 -54.82754568 107.56959797 -58 107 C-71.47123278 98.1679958 -80.96278654 84.15272776 -84.49609375 68.46484375 C-86.8429896 52.32766066 -84.98325248 35.91131205 -76 22 C-58.41347659 -0.92152391 -27.47122444 -12.38139693 0 0 Z " fill="#35A9D9" transform="translate(355,318)"/>
<path d="M0 0 C11.37886494 8.66237465 18.31344597 19.93403314 20.30712891 34.19726562 C23.80706393 71.3689893 -3.45307461 112.02011366 -19.4375 144.125 C-19.91873825 145.09537704 -19.91873825 145.09537704 -20.40969849 146.08535767 C-21.30883363 147.89516688 -22.21478695 149.701584 -23.12109375 151.5078125 C-23.6308374 152.52504395 -24.14058105 153.54227539 -24.66577148 154.59033203 C-26 157 -26 157 -28 159 C-30.375 159.4375 -30.375 159.4375 -33 159 C-36.57004063 155.16551192 -38.86943808 150.80308959 -41.25 146.1875 C-41.64276123 145.4339624 -42.03552246 144.6804248 -42.44018555 143.90405273 C-43.63370474 141.60619775 -44.81788472 139.30373853 -46 137 C-46.33016113 136.3615918 -46.66032227 135.72318359 -47.00048828 135.06542969 C-88.05601334 55.51102877 -88.05601334 55.51102877 -79.96484375 26.875 C-75.77738946 14.3974034 -67.31541811 3.86259154 -56 -3 C-37.46652398 -11.49450984 -17.26230307 -11.95327063 0 0 Z " fill="#D75548" transform="translate(149,110)"/>
<path d="M0 0 C12.03168123 9.28571194 20.66659723 20.64240011 23 36 C24.15589093 53.80516601 19.44784115 67.24267744 7.734375 80.61328125 C5.19517534 82.82963981 3.05068848 84.02309783 0.0859375 85.55078125 C-6.25342874 89.24698786 -8.34029838 94.30056951 -11.125 100.875 C-12.13311412 103.11243021 -13.14223047 105.34940912 -14.15234375 107.5859375 C-14.63300293 108.67616211 -15.11366211 109.76638672 -15.60888672 110.88964844 C-17.51646712 115.15475451 -19.57844362 119.33175366 -21.6875 123.5 C-22.01443848 124.15726074 -22.34137695 124.81452148 -22.67822266 125.49169922 C-24.8707202 129.8707202 -24.8707202 129.8707202 -26 131 C-28.75 131.5625 -28.75 131.5625 -32 131 C-37.085683 124.15630313 -40.30580988 116.14966901 -43.78588867 108.40722656 C-44.82073945 106.10668314 -45.86577604 103.81096533 -46.91210938 101.515625 C-47.57351709 100.05495923 -48.23434585 98.59403113 -48.89453125 97.1328125 C-49.20695267 96.44639679 -49.51937408 95.75998108 -49.84126282 95.05276489 C-52 90.23113254 -52 90.23113254 -52 88 C-52.73476563 87.73445313 -53.46953125 87.46890625 -54.2265625 87.1953125 C-64.8889059 82.59999267 -72.38570139 73.26585079 -76.95703125 62.90625 C-81.36716472 50.61733876 -82.21274375 35.98447201 -77.32421875 23.703125 C-70.20583524 9.17238345 -60.30122913 -0.89616393 -44.9375 -6.375 C-29.73286709 -10.66532735 -13.36983286 -8.47740191 0 0 Z " fill="#83BD57" transform="translate(423,19)"/>
<path d="M0 0 C5.92545912 4.15666536 9.43849139 9.06878665 12.60546875 15.52734375 C12.97800781 16.26597656 13.35054688 17.00460937 13.734375 17.765625 C16.48989318 26.50172973 15.98126995 37.9787662 12.10546875 46.21484375 C6.5414059 55.49259506 -0.90683103 62.31754312 -11.39453125 65.52734375 C-22.48494154 67.13087173 -32.90770502 65.98175266 -42.08203125 59.33984375 C-49.23927711 53.41919011 -54.88211079 45.84066971 -56.39453125 36.52734375 C-57.27602033 24.69226899 -55.60569097 15.6691818 -48.08203125 6.33984375 C-35.25930901 -7.43270976 -15.89871324 -9.77783832 0 0 Z " fill="#FDFEFE" transform="translate(350.39453125,343.47265625)"/>
<path d="M0 0 C7.66505351 4.51904894 13.41147303 10.82035659 16.24609375 19.32421875 C16.99593306 29.36135348 17.19388423 37.75595246 11.24609375 46.32421875 C10.64796875 47.25234375 10.04984375 48.18046875 9.43359375 49.13671875 C2.92891652 55.64139598 -4.7213813 58.59090601 -13.87890625 58.82421875 C-22.67925937 58.68590279 -29.19711002 56.18758947 -35.91015625 50.49609375 C-42.14432893 43.99776121 -44.93080934 36.70420749 -45.25390625 27.76171875 C-45.0511568 21.81207117 -43.79252181 17.41190072 -40.75390625 12.32421875 C-40.40328125 11.69902344 -40.05265625 11.07382813 -39.69140625 10.4296875 C-31.31726174 -2.91660531 -13.87779571 -6.49453494 0 0 Z " fill="#FEFDFD" transform="translate(131.75390625,124.67578125)"/>
<path d="M0 0 C8.45719346 4.88031594 13.53595505 11.88246175 16.1796875 21.2578125 C17.39942767 32.56168365 14.85007983 40.63650707 7.8828125 49.46875 C1.90347566 55.7497965 -5.88554974 58.52168111 -14.4453125 58.7578125 C-23.15329166 58.60165676 -29.73740102 55.89879334 -36.23828125 50.1015625 C-42.46514339 43.47772372 -45.40135399 37.01990811 -45.3203125 27.9453125 C-45.31459229 27.19910645 -45.30887207 26.45290039 -45.30297852 25.68408203 C-45.03322828 17.31183407 -42.13799672 11.52952738 -36.5078125 5.3828125 C-26.61704114 -3.79374561 -12.20497296 -5.72233158 0 0 Z " fill="#FDFEFD" transform="translate(408.8203125,34.7421875)"/>
<path d="M0 0 C4.17587645 0.31431328 6.05426337 1.68510522 8.79394531 4.79663086 C9.23319336 5.31749268 9.67244141 5.83835449 10.125 6.375 C11.0778376 7.46997086 12.0336533 8.56235619 12.9921875 9.65234375 C13.72646973 10.48741455 13.72646973 10.48741455 14.47558594 11.33935547 C15.99044369 12.98958969 17.56282722 14.53302548 19.1953125 16.06640625 C19.96270752 16.79174561 19.96270752 16.79174561 20.74560547 17.53173828 C22.1810196 18.87304217 23.62927451 20.20056491 25.078125 21.52734375 C27 24 27 24 26.796875 26.81640625 C26.53390625 27.53699219 26.2709375 28.25757813 26 29 C22.65750371 28.40312566 20.53563658 27.26396123 18 25 C18 24.34 18 23.68 18 23 C17.12794922 22.61521484 17.12794922 22.61521484 16.23828125 22.22265625 C9.54828372 18.5682597 2.67042219 10.61920205 -1 4 C-0.68359375 1.734375 -0.68359375 1.734375 0 0 Z " fill="#DDDDDC" transform="translate(202,448)"/>
<path d="M0 0 C4.6945389 0.41270672 9.22420543 1.45124695 13.8125 2.5 C18.89603653 3.62184655 23.81578214 4.40322825 29.01171875 4.69140625 C31 5 31 5 34 7 C33.125 10.875 33.125 10.875 32 12 C25.89731451 11.94464684 19.79719931 10.66992958 13.8125 9.5625 C13.14790771 9.44036133 12.48331543 9.31822266 11.79858398 9.19238281 C7.44194719 8.3594566 3.24308184 7.27127355 -1 6 C-1.625 4.125 -1.625 4.125 -2 2 C-1.34 1.34 -0.68 0.68 0 0 Z " fill="#DDDDDC" transform="translate(196,78)"/>
<path d="M0 0 C-0.35080182 5.07739477 -3.05621938 7.38240979 -6.625 10.625 C-12.14511241 15.85579145 -16.27282188 21.33307575 -20 28 C-21.65 27.67 -23.3 27.34 -25 27 C-25 22.88820416 -24.91825947 22.38779213 -22.62109375 19.35546875 C-22.11126953 18.67806641 -21.60144531 18.00066406 -21.07617188 17.30273438 C-20.2650293 16.25569336 -20.2650293 16.25569336 -19.4375 15.1875 C-18.92380859 14.50107422 -18.41011719 13.81464844 -17.88085938 13.10742188 C-6.42941375 -1.92882412 -6.42941375 -1.92882412 0 0 Z " fill="#DCDCDB" transform="translate(180,249)"/>
<path d="M0 0 C1.875 0.47265625 1.875 0.47265625 4 2 C4.8601297 4.86411243 5.48158511 7.51133596 6 10.4375 C7.25788995 16.86160973 8.78124356 22.78878604 11.36328125 28.8359375 C12.09080592 31.30862872 11.84927018 32.60012683 11 35 C9.68 35 8.36 35 7 35 C2.51249515 24.16258709 -1.91689608 12.91964908 -1 1 C-0.67 0.67 -0.34 0.34 0 0 Z " fill="#DDDDDC" transform="translate(147,342)"/>
<path d="M0 0 C7.38932927 0.62095204 14.32506648 2.15849164 21.5 4 C23.14355469 4.40992187 23.14355469 4.40992187 24.8203125 4.828125 C32.86399502 6.86399502 32.86399502 6.86399502 34 8 C34.04063832 9.66617115 34.042721 11.33388095 34 13 C26.37470045 11.79517097 19.00060965 9.99485272 11.578125 7.90234375 C7.98609948 6.9217229 7.98609948 6.9217229 4.171875 6.50390625 C1 6 1 6 -1 4 C-0.625 1.875 -0.625 1.875 0 0 Z " fill="#DADAD9" transform="translate(246,89)"/>
<path d="M0 0 C-0.06058594 0.77859375 -0.12117187 1.5571875 -0.18359375 2.359375 C-0.97279652 12.89826743 -1.50087249 23.44398407 -2 34 C-4.475 34.495 -4.475 34.495 -7 35 C-7.05851976 30.83339324 -7.0937706 26.66689363 -7.125 22.5 C-7.14175781 21.32695312 -7.15851563 20.15390625 -7.17578125 18.9453125 C-7.21128955 12.62483495 -7.08314229 7.00178059 -5 1 C-3 0 -3 0 0 0 Z " fill="#DCDCDB" transform="translate(152,291)"/>
<path d="M0 0 C-0.046875 1.81640625 -0.046875 1.81640625 -1 4 C-3.4467295 5.1898896 -5.68608278 6.08922276 -8.25 6.9375 C-9.70870124 7.4468643 -11.16702959 7.9572976 -12.625 8.46875 C-13.35847656 8.72140625 -14.09195312 8.9740625 -14.84765625 9.234375 C-16.86044876 9.95035927 -18.83619781 10.72067363 -20.8125 11.53125 C-21.946875 11.9953125 -23.08125 12.459375 -24.25 12.9375 C-25.77367187 13.56978516 -25.77367187 13.56978516 -27.328125 14.21484375 C-30.09896181 15.02908088 -31.34319085 15.01844351 -34 14 C-34 12.68 -34 11.36 -34 10 C-33.26885986 9.73783691 -32.53771973 9.47567383 -31.78442383 9.20556641 C-28.46011225 8.01298117 -25.13630193 6.81900488 -21.8125 5.625 C-20.66201172 5.2125 -19.51152344 4.8 -18.32617188 4.375 C-17.21435547 3.97539062 -16.10253906 3.57578125 -14.95703125 3.1640625 C-13.93585205 2.79748535 -12.91467285 2.4309082 -11.86254883 2.05322266 C-9.98180485 1.3612372 -8.1167159 0.62480387 -6.2722168 -0.15869141 C-3.69152186 -1.11421679 -2.54062743 -0.94097312 0 0 Z " fill="#DADAD9" transform="translate(364,156)"/>
<path d="M0 0 C7.66711068 0.37265171 14.35054084 2.54548713 21.5625 5.0625 C22.66658203 5.43955078 23.77066406 5.81660156 24.90820312 6.20507812 C27.60840775 7.12852473 30.30541892 8.06029718 33 9 C33 10.65 33 12.3 33 14 C25.9214061 12.51209577 18.99874178 10.67364175 12.0625 8.625 C11.02287109 8.33367187 9.98324219 8.04234375 8.91210938 7.7421875 C7.42614258 7.30132812 7.42614258 7.30132812 5.91015625 6.8515625 C5.01433838 6.59197754 4.11852051 6.33239258 3.19555664 6.06494141 C0.55748572 4.78536114 -0.00547773 3.70367132 -1 1 C-0.67 0.67 -0.34 0.34 0 0 Z " fill="#DDDDDC" transform="translate(296,103)"/>
<path d="M0 0 C-0.03125 2.1953125 -0.03125 2.1953125 -1 5 C-3.29067584 6.97166188 -5.87636413 8.38959585 -8.5 9.875 C-14.1144586 13.18124392 -19.24654328 16.53405025 -24.10546875 20.91796875 C-26 22 -26 22 -28.73828125 21.67578125 C-29.85783203 21.34126953 -29.85783203 21.34126953 -31 21 C-30.64825693 18.28014761 -30.26451049 17.22595708 -28.14575195 15.41601562 C-27.35128662 14.91779297 -26.55682129 14.41957031 -25.73828125 13.90625 C-24.86623047 13.35066406 -23.99417969 12.79507813 -23.09570312 12.22265625 C-22.17724609 11.65417969 -21.25878906 11.08570313 -20.3125 10.5 C-18.51685878 9.36469136 -16.72128426 8.22927721 -14.92578125 7.09375 C-14.07193848 6.56265625 -13.2180957 6.0315625 -12.33837891 5.484375 C-10.37909213 4.24064316 -8.49246355 2.9423666 -6.60546875 1.59375 C-4 0 -4 0 0 0 Z " fill="#DDDDDC" transform="translate(221,218)"/>
<path d="M0 0 C0 1.32 0 2.64 0 4 C-4.0500847 5.88463637 -8.10682504 7.75384817 -12.17041016 9.60913086 C-13.55157024 10.2423112 -14.93082952 10.8796551 -16.30810547 11.52124023 C-18.28908117 12.44317233 -20.27642804 13.34987567 -22.265625 14.25390625 C-23.45961914 14.80377197 -24.65361328 15.3536377 -25.88378906 15.92016602 C-28.9341879 16.9771947 -30.08739382 17.23880328 -33 16 C-32.88012695 14.18847656 -32.88012695 14.18847656 -32 12 C-29.37963867 10.44433594 -29.37963867 10.44433594 -25.91796875 8.984375 C-25.30738113 8.72368225 -24.69679352 8.4629895 -24.06770325 8.19439697 C-22.77527904 7.64620636 -21.4797279 7.10533851 -20.18139648 6.57128906 C-18.19861421 5.75457796 -16.22701794 4.91463733 -14.25585938 4.0703125 C-4.5965196 0 -4.5965196 0 0 0 Z " fill="#DCDCDB" transform="translate(314,173)"/>
<path d="M0 0 C10.87342907 1.3989207 19.67329404 8.11411295 27 16 C28.65687729 18.70572621 29 19.76476499 29 23 C26.875 23 26.875 23 24 22 C22.71875 20.3984375 22.71875 20.3984375 21.375 18.375 C16.95992834 12.00402872 10.283906 8.52871486 3.375 5.3125 C1 4 1 4 0.125 1.8125 C0.08375 1.214375 0.0425 0.61625 0 0 Z " fill="#DCDCDB" transform="translate(345,121)"/>
<path d="M0 0 C0.495 1.98 0.495 1.98 1 4 C0.07960938 4.4125 -0.84078125 4.825 -1.7890625 5.25 C-9.87263124 8.92444721 -17.51866624 12.92272792 -25.07421875 17.59375 C-28 19 -28 19 -30.39453125 18.71875 C-30.92433594 18.4815625 -31.45414063 18.244375 -32 18 C-30.54107736 14.17128488 -28.81292533 13.05276308 -25.16796875 11.30859375 C-24.20439453 10.83873047 -23.24082031 10.36886719 -22.24804688 9.88476562 C-20.73307617 9.16836914 -20.73307617 9.16836914 -19.1875 8.4375 C-17.20102039 7.47952694 -15.21531687 6.51994257 -13.23046875 5.55859375 C-12.34770264 5.13892334 -11.46493652 4.71925293 -10.55541992 4.28686523 C-7.93953379 3.0201353 -7.93953379 3.0201353 -5.3605957 1.34008789 C-3 0 -3 0 0 0 Z " fill="#DCDCDB" transform="translate(266,193)"/>
<path d="M0 0 C4.76264597 0.47887665 7.22641652 2.49488642 10.8125 5.5625 C11.78832031 6.38878906 12.76414063 7.21507812 13.76953125 8.06640625 C14.87361328 9.02353516 14.87361328 9.02353516 16 10 C15.67 11.65 15.34 13.3 15 15 C9.89586543 15 8.19822411 12.85748137 4.75 9.5 C4.19570312 8.97535156 3.64140625 8.45070313 3.0703125 7.91015625 C1.70512867 6.61558538 0.35142505 5.30892741 -1 4 C-0.67 2.68 -0.34 1.36 0 0 Z " fill="#DDDDDC" transform="translate(241,486)"/>
<path d="M0 0 C1.76171875 0.10546875 1.76171875 0.10546875 4 1 C5.95703125 3.80078125 5.95703125 3.80078125 7.8125 7.3125 C8.43769531 8.46363281 9.06289062 9.61476563 9.70703125 10.80078125 C11 14 11 14 10.69921875 16.41796875 C10.46847656 16.94003906 10.23773438 17.46210938 10 18 C5.57685969 16.49946681 4.3015534 13.55472294 2.1875 9.5625 C1.56230469 8.40878906 0.93710938 7.25507813 0.29296875 6.06640625 C-1 3 -1 3 0 0 Z " fill="#DBDBDA" transform="translate(162,392)"/>
<path d="M0 0 C3.72082679 0.22470357 4.8557155 0.84631063 7.45703125 3.6171875 C8.25640204 4.69270456 9.04127901 5.77912192 9.8125 6.875 C10.21919922 7.41769531 10.62589844 7.96039063 11.04492188 8.51953125 C14 12.58214286 14 12.58214286 14 16 C10.27917321 15.77529643 9.1442845 15.15368937 6.54296875 12.3828125 C5.74359796 11.30729544 4.95872099 10.22087808 4.1875 9.125 C3.78080078 8.58230469 3.37410156 8.03960937 2.95507812 7.48046875 C0 3.41785714 0 3.41785714 0 0 Z " fill="#DEDEDD" transform="translate(178,421)"/>
<path d="M0 0 C0.99 0.33 1.98 0.66 3 1 C3.03738281 1.60328125 3.07476562 2.2065625 3.11328125 2.828125 C3.5045773 7.58505732 3.93259158 10.2354533 7 14 C6.6875 16.25 6.6875 16.25 6 18 C1.74985925 16.48209259 0.04100726 13.93622829 -2 10 C-2.4362437 7.13781575 -2.29330616 4.93306155 -2 2 C-1.34 1.34 -0.68 0.68 0 0 Z " fill="#DADAD8" transform="translate(172,56)"/>
</svg>
